<svg width="309" height="372" fill="none" xmlns="http://www.w3.org/2000/svg"><g filter="url(#filter0_d)"><path fill="#fff" d="M12.369 12.369h284.138v347H12.369z"/></g><path fill="#000" d="M27.456 32.485h252.707v253.964H27.456z"/><path d="M81.336 330.483h8.087v3.06H77.527v-18.485h3.809v15.425zm9.47-3.935c0-1.363.263-2.577.788-3.644.524-1.066 1.278-1.891 2.26-2.475.99-.584 2.136-.876 3.44-.876 1.853 0 3.364.567 4.532 1.701 1.177 1.134 1.832 2.674 1.968 4.621l.025.939c0 2.108-.588 3.8-1.764 5.078-1.177 1.27-2.755 1.905-4.736 1.905-1.98 0-3.563-.635-4.748-1.905-1.176-1.269-1.764-2.996-1.764-5.179v-.165zm3.67.266c0 1.304.245 2.302.736 2.996.49.686 1.193 1.029 2.107 1.029.889 0 1.583-.339 2.082-1.016.5-.685.749-1.777.749-3.275 0-1.278-.25-2.268-.749-2.971-.499-.702-1.201-1.054-2.107-1.054-.897 0-1.591.352-2.082 1.054-.491.694-.737 1.773-.737 3.237zm19.83 5.332c-.906 1.101-2.159 1.651-3.758 1.651-1.473 0-2.599-.423-3.377-1.27-.77-.846-1.164-2.086-1.181-3.72v-9h3.669v8.874c0 1.43.652 2.145 1.955 2.145 1.244 0 2.099-.432 2.565-1.295v-9.724h3.681v13.736h-3.453l-.101-1.397zm10.194 1.397h-3.682v-13.736h3.682v13.736zm-3.898-17.291c0-.55.182-1.003.546-1.359.373-.355.876-.533 1.511-.533.626 0 1.126.178 1.498.533.373.356.559.809.559 1.359 0 .558-.191 1.015-.572 1.371-.372.355-.867.533-1.485.533-.618 0-1.117-.178-1.498-.533-.372-.356-.559-.813-.559-1.371zm14.372 13.495c0-.449-.225-.8-.673-1.054-.44-.262-1.151-.495-2.133-.698-3.267-.686-4.9-2.074-4.9-4.164 0-1.219.503-2.234 1.51-3.047 1.016-.821 2.34-1.231 3.974-1.231 1.743 0 3.136.41 4.177 1.231 1.049.821 1.574 1.887 1.574 3.199h-3.669c0-.524-.169-.956-.508-1.295-.338-.347-.867-.52-1.587-.52-.618 0-1.096.139-1.434.419a1.321 1.321 0 00-.508 1.066c0 .406.19.737.571.99.389.246 1.041.462 1.955.648.914.178 1.684.381 2.311.609 1.938.711 2.907 1.943 2.907 3.695 0 1.252-.537 2.268-1.612 3.046-1.075.771-2.463 1.156-4.164 1.156-1.151 0-2.176-.203-3.073-.61-.888-.414-1.587-.977-2.094-1.688-.508-.719-.762-1.494-.762-2.323h3.478c.034.651.275 1.151.724 1.498.449.347 1.05.52 1.803.52.702 0 1.231-.131 1.587-.393.364-.271.546-.622.546-1.054zm16.288 3.796h-3.682v-13.736h3.682v13.736zm-3.898-17.291c0-.55.182-1.003.546-1.359.372-.355.876-.533 1.511-.533.626 0 1.125.178 1.498.533.372.356.558.809.558 1.359 0 .558-.19 1.015-.571 1.371-.372.355-.867.533-1.485.533-.618 0-1.117-.178-1.498-.533-.373-.356-.559-.813-.559-1.371zm10.309 3.555l.114 1.586c.982-1.227 2.298-1.84 3.948-1.84 1.456 0 2.539.427 3.25 1.282.711.855 1.075 2.133 1.092 3.834v8.874h-3.669v-8.785c0-.779-.169-1.342-.508-1.689-.338-.355-.901-.533-1.688-.533-1.033 0-1.807.44-2.323 1.32v9.687h-3.669v-13.736h3.453zm21.252 1.498c.973-1.168 2.196-1.752 3.669-1.752 2.979 0 4.49 1.73 4.532 5.192v8.798h-3.669v-8.696c0-.788-.169-1.367-.508-1.74-.338-.381-.901-.571-1.688-.571-1.075 0-1.854.415-2.336 1.244v9.763h-3.669v-19.5h3.669v7.262zm17.291 12.492c-2.015 0-3.656-.618-4.926-1.854-1.261-1.235-1.892-2.882-1.892-4.938v-.356c0-1.379.267-2.611.8-3.694.533-1.092 1.287-1.93 2.26-2.514.982-.592 2.099-.888 3.352-.888 1.878 0 3.355.592 4.43 1.777 1.084 1.185 1.625 2.865 1.625 5.04v1.498h-8.747c.119.897.474 1.617 1.067 2.158.6.542 1.358.813 2.272.813 1.413 0 2.518-.512 3.313-1.536l1.803 2.018c-.55.779-1.295 1.388-2.234 1.828-.94.432-1.981.648-3.123.648zm-.419-11.274c-.728 0-1.32.246-1.778.737-.448.491-.736 1.193-.863 2.107h5.104v-.292c-.017-.812-.237-1.439-.66-1.879-.424-.448-1.025-.673-1.803-.673zm15.882.724c-.5-.068-.94-.102-1.321-.102-1.388 0-2.298.47-2.729 1.41v8.988h-3.669v-13.736h3.466l.101 1.637c.737-1.261 1.756-1.891 3.06-1.891.406 0 .787.055 1.142.165l-.05 3.529zm7.845 10.55c-2.014 0-3.656-.618-4.925-1.854-1.261-1.235-1.892-2.882-1.892-4.938v-.356c0-1.379.267-2.611.8-3.694.533-1.092 1.286-1.93 2.26-2.514.981-.592 2.098-.888 3.351-.888 1.879 0 3.356.592 4.431 1.777 1.083 1.185 1.625 2.865 1.625 5.04v1.498h-8.747c.118.897.474 1.617 1.066 2.158.601.542 1.359.813 2.273.813 1.413 0 2.517-.512 3.313-1.536l1.803 2.018c-.55.779-1.295 1.388-2.235 1.828-.939.432-1.98.648-3.123.648zm-.419-11.274c-.727 0-1.32.246-1.777.737-.449.491-.736 1.193-.863 2.107h5.103v-.292c-.017-.812-.237-1.439-.66-1.879-.423-.448-1.024-.673-1.803-.673zm18.371 5.345h-3.047l-.432-12.81h3.91l-.431 12.81zm-1.524 2.006c.618 0 1.113.182 1.485.546.381.364.572.829.572 1.396 0 .559-.191 1.02-.572 1.384-.372.364-.867.546-1.485.546-.609 0-1.104-.182-1.485-.546-.373-.364-.559-.825-.559-1.384 0-.558.186-1.02.559-1.384.381-.372.876-.558 1.485-.558z" fill="#2D8CF0"/><defs><filter id="filter0_d" x=".369" y=".369" width="308.138" height="371" filterUnits="userSpaceOnUse" color-interpolation-filters="sRGB"><feFlood flood-opacity="0" result="BackgroundImageFix"/><feColorMatrix in="SourceAlpha" values="0 0 0 0 0 0 0 0 0 0 0 0 0 0 0 0 0 0 127 0"/><feOffset/><feGaussianBlur stdDeviation="6"/><feColorMatrix values="0 0 0 0 0 0 0 0 0 0 0 0 0 0 0 0 0 0 0.1 0"/><feBlend in2="BackgroundImageFix" result="effect1_dropShadow"/><feBlend in="SourceGraphic" in2="effect1_dropShadow" result="shape"/></filter></defs></svg>