<svg width="268" height="63" fill="none" xmlns="http://www.w3.org/2000/svg"><g filter="url(#filter0_dd)"><rect x="3.846" y="3.537" width="261" height="54" rx="10" fill="#fff"/><rect x="3.846" y="3.537" width="261" height="54" rx="10" fill="#fff"/><path fill="#fff" d="M18.846 18.537h24v24h-24z"/><path fill-rule="evenodd" clip-rule="evenodd" d="M41.886 30.799c0-.816-.073-1.6-.21-2.353h-10.83v4.449h6.189a5.29 5.29 0 01-2.295 3.47v2.886h3.717c2.174-2.002 3.429-4.95 3.429-8.452z" fill="#4285F4"/><path fill-rule="evenodd" clip-rule="evenodd" d="M30.846 42.037c3.105 0 5.708-1.03 7.61-2.786l-3.716-2.886c-1.03.69-2.347 1.098-3.894 1.098-2.995 0-5.53-2.023-6.435-4.741H20.57v2.98a11.496 11.496 0 0010.277 6.335z" fill="#34A853"/><path fill-rule="evenodd" clip-rule="evenodd" d="M24.411 32.722a6.913 6.913 0 01-.36-2.185c0-.758.13-1.495.36-2.185v-2.98H20.57a11.496 11.496 0 00-1.223 5.165c0 1.856.444 3.612 1.223 5.165l3.842-2.98z" fill="#FBBC05"/><path fill-rule="evenodd" clip-rule="evenodd" d="M30.846 23.611c1.688 0 3.204.58 4.396 1.72l3.298-3.299c-1.991-1.855-4.594-2.995-7.694-2.995a11.496 11.496 0 00-10.277 6.336l3.842 2.98c.904-2.72 3.44-4.742 6.435-4.742z" fill="#EA4335"/><path d="M70.14 31.908c-.142 1.517-.702 2.702-1.679 3.555-.976.846-2.275 1.27-3.896 1.27-1.133 0-2.133-.267-2.998-.801-.86-.54-1.524-1.306-1.992-2.295-.47-.99-.713-2.139-.733-3.448v-1.328c0-1.34.238-2.523.713-3.545.475-1.022 1.156-1.81 2.04-2.363.893-.553 1.922-.83 3.087-.83 1.569 0 2.832.426 3.789 1.28.957.852 1.514 2.057 1.67 3.613H67.68c-.117-1.022-.417-1.758-.899-2.207-.475-.456-1.175-.684-2.1-.684-1.073 0-1.9.394-2.48 1.182-.572.78-.865 1.93-.879 3.447v1.26c0 1.536.274 2.708.82 3.515.554.808 1.361 1.211 2.423 1.211.97 0 1.699-.218 2.187-.654.489-.436.798-1.162.928-2.178h2.46zm1.544-.752c0-1.035.205-1.966.615-2.793.41-.833.986-1.471 1.729-1.914.742-.449 1.595-.674 2.558-.674 1.426 0 2.582.46 3.467 1.377.892.918 1.374 2.136 1.445 3.653l.01.556c0 1.042-.202 1.973-.605 2.793a4.399 4.399 0 01-1.72 1.905c-.741.449-1.6.673-2.577.673-1.491 0-2.686-.494-3.584-1.484-.892-.996-1.338-2.32-1.338-3.975v-.117zm2.373.205c0 1.088.224 1.94.674 2.559.449.612 1.074.918 1.875.918.8 0 1.422-.313 1.865-.938.45-.625.674-1.54.674-2.744 0-1.067-.231-1.914-.694-2.539-.455-.625-1.077-.937-1.865-.937-.775 0-1.39.309-1.846.927-.455.612-.683 1.53-.683 2.754zm11.66-5.39l.068 1.22c.782-.944 1.807-1.416 3.077-1.416 2.2 0 3.32 1.26 3.359 3.78v6.982h-2.373v-6.846c0-.67-.147-1.165-.44-1.484-.286-.326-.758-.488-1.416-.488-.957 0-1.67.433-2.138 1.299v7.52H83.48V25.97h2.236zm11.904-2.569v2.569h1.866v1.758H97.62v5.898c0 .404.079.697.235.879.163.176.449.264.86.264.273 0 .55-.033.83-.098v1.836c-.541.15-1.062.224-1.563.224-1.823 0-2.735-1.005-2.735-3.017v-5.987H93.51v-1.757h1.738v-2.569h2.373zm6.211 13.135h-2.373V25.971h2.373v10.566zm-2.519-13.31c0-.365.114-.668.342-.909.234-.24.566-.361.996-.361.429 0 .761.12.996.361.234.241.351.544.351.909 0 .358-.117.657-.351.898-.235.234-.567.352-.996.352-.43 0-.762-.118-.996-.352a1.256 1.256 0 01-.342-.898zm7.314 2.744l.069 1.22c.781-.944 1.806-1.416 3.076-1.416 2.2 0 3.32 1.26 3.359 3.78v6.982h-2.373v-6.846c0-.67-.146-1.165-.439-1.484-.287-.326-.759-.488-1.416-.488-.957 0-1.67.433-2.139 1.299v7.52h-2.373V25.97h2.236zm15.332 9.531c-.696.82-1.686 1.23-2.969 1.23-1.145 0-2.014-.335-2.607-1.005-.586-.671-.879-1.641-.879-2.91V25.97h2.373v6.816c0 1.341.557 2.012 1.67 2.012 1.152 0 1.93-.414 2.334-1.24V25.97h2.373v10.566h-2.236l-.059-1.035zm9.365 1.23c-1.503 0-2.724-.472-3.662-1.416-.931-.95-1.396-2.213-1.396-3.789v-.293c0-1.054.202-1.995.605-2.822.41-.833.983-1.481 1.719-1.943a4.531 4.531 0 012.461-.694c1.439 0 2.549.46 3.33 1.377.788.918 1.182 2.217 1.182 3.897v.957h-6.905c.072.872.362 1.562.87 2.07.514.508 1.158.762 1.933.762 1.087 0 1.973-.44 2.656-1.319l1.28 1.221a4.303 4.303 0 01-1.699 1.475c-.704.345-1.495.517-2.374.517zm-.283-9.052c-.651 0-1.178.228-1.582.683-.397.456-.651 1.09-.761 1.905h4.521v-.176c-.052-.794-.264-1.393-.635-1.797-.371-.41-.885-.615-1.543-.615zm20.635 5.586l1.68-7.295h2.314l-2.881 10.566h-1.953l-2.265-7.256-2.227 7.256h-1.953L143.5 25.971h2.315l1.709 7.216 2.168-7.216h1.787l2.197 7.295zm8.105 3.271h-2.373V25.971h2.373v10.566zm-2.519-13.31c0-.365.114-.668.342-.909.234-.24.566-.361.996-.361.43 0 .762.12.996.361.234.241.352.544.352.909 0 .358-.118.657-.352.898-.234.234-.566.352-.996.352-.43 0-.762-.118-.996-.352a1.256 1.256 0 01-.342-.898zm8.086.175v2.569h1.865v1.758h-1.865v5.898c0 .404.078.697.234.879.163.176.449.264.86.264.273 0 .55-.033.83-.098v1.836a5.845 5.845 0 01-1.563.224c-1.823 0-2.734-1.005-2.734-3.017v-5.987h-1.738v-1.757h1.738v-2.569h2.373zm6.025 3.721c.775-.898 1.755-1.348 2.94-1.348 2.252 0 3.395 1.286 3.427 3.858v6.904h-2.373v-6.816c0-.73-.159-1.244-.478-1.543-.313-.306-.775-.46-1.387-.46-.95 0-1.66.424-2.129 1.27v7.55H171v-15h2.373v5.585zm24.883 7.568c-.514.671-1.227 1.179-2.139 1.524-.911.345-1.946.517-3.105.517-1.191 0-2.246-.27-3.164-.81-.918-.54-1.628-1.312-2.129-2.315-.495-1.009-.752-2.184-.771-3.525v-1.113c0-2.149.514-3.825 1.542-5.03 1.029-1.21 2.465-1.816 4.307-1.816 1.582 0 2.839.39 3.77 1.172.931.781 1.491 1.907 1.679 3.379h-2.422c-.273-1.712-1.266-2.569-2.978-2.569-1.107 0-1.95.4-2.529 1.202-.573.794-.869 1.963-.889 3.506v1.093c0 1.537.322 2.731.967 3.584.651.847 1.553 1.27 2.705 1.27 1.263 0 2.161-.287 2.695-.86v-2.783h-2.93v-1.875h5.391v5.45zm2.041-3.535c0-1.035.205-1.966.615-2.793.411-.833.987-1.471 1.729-1.914.742-.449 1.595-.674 2.558-.674 1.426 0 2.582.46 3.467 1.377.892.918 1.374 2.136 1.446 3.653l.009.556c0 1.042-.201 1.973-.605 2.793a4.397 4.397 0 01-1.719 1.905c-.742.449-1.601.673-2.578.673-1.491 0-2.686-.494-3.584-1.484-.892-.996-1.338-2.32-1.338-3.975v-.117zm2.373.205c0 1.088.225 1.94.674 2.559.449.612 1.074.918 1.875.918.801 0 1.423-.313 1.865-.938.449-.625.674-1.54.674-2.744 0-1.067-.231-1.914-.693-2.539-.456-.625-1.078-.937-1.866-.937-.774 0-1.39.309-1.845.927-.456.612-.684 1.53-.684 2.754zm9.014-.205c0-1.035.205-1.966.615-2.793.41-.833.986-1.471 1.729-1.914.742-.449 1.595-.674 2.558-.674 1.426 0 2.582.46 3.467 1.377.892.918 1.374 2.136 1.445 3.653l.01.556c0 1.042-.202 1.973-.605 2.793-.398.82-.97 1.455-1.719 1.905-.742.449-1.602.673-2.578.673-1.491 0-2.686-.494-3.584-1.484-.892-.996-1.338-2.32-1.338-3.975v-.117zm2.373.205c0 1.088.224 1.94.674 2.559.449.612 1.074.918 1.875.918.8 0 1.422-.313 1.865-.938.449-.625.674-1.54.674-2.744 0-1.067-.231-1.914-.694-2.539-.455-.625-1.077-.937-1.865-.937-.775 0-1.39.309-1.846.927-.455.612-.683 1.53-.683 2.754zm9.043-.185c0-1.64.384-2.95 1.152-3.926.775-.983 1.8-1.475 3.076-1.475 1.205 0 2.152.42 2.842 1.26l.108-1.064h2.138v10.244c0 1.387-.433 2.48-1.299 3.281-.859.8-2.021 1.201-3.486 1.201a5.61 5.61 0 01-2.275-.488c-.736-.319-1.296-.739-1.68-1.26l1.123-1.426c.729.866 1.628 1.3 2.695 1.3.788 0 1.41-.216 1.866-.645.455-.423.683-1.048.683-1.875v-.713c-.683.762-1.595 1.142-2.734 1.142-1.237 0-2.25-.491-3.037-1.474-.782-.983-1.172-2.344-1.172-4.082zm2.363.205c0 1.061.215 1.898.645 2.51.436.605 1.038.908 1.806.908.957 0 1.667-.41 2.129-1.23v-4.65c-.449-.8-1.152-1.2-2.109-1.2-.781 0-1.39.309-1.826.927-.43.619-.645 1.53-.645 2.735zm11.924 5.156h-2.373v-15h2.373v15zm7.246.195c-1.504 0-2.725-.472-3.662-1.416-.931-.95-1.397-2.213-1.397-3.789v-.293c0-1.054.202-1.995.606-2.822.41-.833.983-1.481 1.719-1.943a4.529 4.529 0 012.461-.694c1.438 0 2.548.46 3.33 1.377.787.918 1.181 2.217 1.181 3.897v.957h-6.904c.072.872.361 1.562.869 2.07.515.508 1.159.762 1.934.762 1.087 0 1.972-.44 2.656-1.319l1.279 1.221a4.296 4.296 0 01-1.699 1.475c-.703.345-1.494.517-2.373.517zm-.283-9.052c-.651 0-1.179.228-1.582.683-.397.456-.651 1.09-.762 1.905h4.522v-.176c-.052-.794-.264-1.393-.635-1.797-.371-.41-.886-.615-1.543-.615z" fill="#000" fill-opacity=".54"/></g><defs><filter id="filter0_dd" x=".846" y=".537" width="267" height="62" filterUnits="userSpaceOnUse" color-interpolation-filters="sRGB"><feFlood flood-opacity="0" result="BackgroundImageFix"/><feColorMatrix in="SourceAlpha" values="0 0 0 0 0 0 0 0 0 0 0 0 0 0 0 0 0 0 127 0"/><feOffset dy="2"/><feGaussianBlur stdDeviation="1.5"/><feColorMatrix values="0 0 0 0 0 0 0 0 0 0 0 0 0 0 0 0 0 0 0.168 0"/><feBlend in2="BackgroundImageFix" result="effect1_dropShadow"/><feColorMatrix in="SourceAlpha" values="0 0 0 0 0 0 0 0 0 0 0 0 0 0 0 0 0 0 127 0"/><feOffset/><feGaussianBlur stdDeviation="1.5"/><feColorMatrix values="0 0 0 0 0 0 0 0 0 0 0 0 0 0 0 0 0 0 0.084 0"/><feBlend in2="effect1_dropShadow" result="effect2_dropShadow"/><feBlend in="SourceGraphic" in2="effect2_dropShadow" result="shape"/></filter></defs></svg>